<svg xmlns="http://www.w3.org/2000/svg" xmlns:xlink="http://www.w3.org/1999/xlink" version="1.1" x="0px" y="0px" viewBox="0 0 100 125" enable-background="new 0 0 100 100" xml:space="preserve"><g><path d="M87.445,48.071c-0.049-0.959-0.133-1.908-0.252-2.846c-0.08-0.625-0.174-1.246-0.284-1.862   c-1.484-8.309-5.706-15.67-11.698-21.116c-0.222-0.202-0.446-0.401-0.673-0.597c-0.454-0.393-0.917-0.775-1.389-1.146   c-1.18-0.928-2.418-1.786-3.706-2.569c-0.515-0.313-1.039-0.614-1.57-0.903C62.559,14.146,56.471,12.506,50,12.506   s-12.559,1.639-17.872,4.525c-0.531,0.289-1.055,0.59-1.57,0.903c-1.288,0.783-2.526,1.641-3.706,2.569   c-0.472,0.371-0.935,0.753-1.389,1.146c-0.227,0.196-0.451,0.395-0.673,0.597c-5.993,5.447-10.214,12.807-11.698,21.116   c-0.11,0.615-0.205,1.236-0.284,1.862c-0.119,0.938-0.204,1.887-0.252,2.846c-0.032,0.639-0.049,1.282-0.049,1.929   s0.016,1.29,0.049,1.929c0.049,0.959,0.133,1.908,0.252,2.846c0.04,0.313,0.083,0.624,0.131,0.935   c0.047,0.31,0.099,0.619,0.154,0.927c1.319,7.386,4.801,14.022,9.768,19.231c0.207,0.217,0.416,0.432,0.628,0.644   c0.424,0.424,0.858,0.838,1.302,1.241c0.222,0.202,0.446,0.401,0.673,0.597c0.454,0.393,0.917,0.775,1.389,1.146   c1.18,0.928,2.418,1.786,3.706,2.569c0.515,0.313,1.039,0.614,1.57,0.903c5.313,2.886,11.401,4.525,17.872,4.525   s12.559-1.639,17.872-4.525c0.531-0.289,1.055-0.59,1.57-0.903c1.288-0.783,2.526-1.641,3.706-2.569   c0.472-0.371,0.935-0.753,1.389-1.146c0.227-0.196,0.451-0.396,0.673-0.597c0.444-0.403,0.878-0.817,1.302-1.241   c0.212-0.212,0.422-0.427,0.628-0.644c4.966-5.209,8.448-11.846,9.768-19.231c0.11-0.616,0.205-1.236,0.284-1.862   c0.119-0.938,0.204-1.887,0.252-2.846c0.032-0.639,0.049-1.282,0.049-1.929S87.477,48.71,87.445,48.071z M84.76,60.58   c-0.171,0.564-0.356,1.124-0.554,1.678c-0.297,0.832-0.625,1.652-0.983,2.459c-0.477,1.076-1.008,2.129-1.59,3.156   c-0.146,0.257-0.294,0.512-0.446,0.765c-1.52,2.534-3.363,4.898-5.507,7.042c-4.501,4.502-9.977,7.676-15.95,9.326   c-0.284,0.079-0.57,0.154-0.857,0.225c-0.573,0.143-1.151,0.273-1.733,0.388c-2.326,0.461-4.715,0.697-7.14,0.697V13.683   c2.425,0,4.814,0.236,7.14,0.697c0.582,0.115,1.159,0.245,1.733,0.388c0.287,0.072,0.572,0.147,0.857,0.225   c5.974,1.65,11.449,4.825,15.95,9.326c2.144,2.144,3.986,4.508,5.507,7.042c0.152,0.253,0.301,0.508,0.446,0.765   c0.873,1.54,1.63,3.14,2.266,4.787c0.106,0.275,0.208,0.551,0.308,0.828c0.198,0.554,0.383,1.114,0.554,1.678   c1.026,3.386,1.557,6.942,1.557,10.58S85.786,57.194,84.76,60.58z" /></g></svg>
