<svg xmlns="http://www.w3.org/2000/svg" x="0px" y="0px" width="100" height="100" viewBox="0,0,256,256">
<g fill="#ffffff" fill-rule="nonzero" stroke="none" stroke-width="1" stroke-linecap="butt" stroke-linejoin="miter" stroke-miterlimit="10" stroke-dasharray="" stroke-dashoffset="0" font-family="none" font-weight="none" font-size="none" text-anchor="none" style="mix-blend-mode: normal"><path d="M0,256v-256h256v256z" id="bgRectangle"></path></g><g fill="#000000" fill-rule="nonzero" stroke="none" stroke-width="1" stroke-linecap="butt" stroke-linejoin="miter" stroke-miterlimit="10" stroke-dasharray="" stroke-dashoffset="0" font-family="none" font-weight="none" font-size="none" text-anchor="none" style="mix-blend-mode: normal"><g transform="scale(10.66667,10.66667)"><path d="M12,2c-5.52344,0 -10,4.47656 -10,10c0,5.52344 4.47656,10 10,10c5.52344,0 10,-4.47656 10,-10c0,-5.52344 -4.47656,-10 -10,-10zM12,4c4.41016,0 8,3.58984 8,8c0,0.46875 -0.04687,0.92969 -0.125,1.375c-0.24609,-0.05469 -0.60937,-0.12109 -1.03125,-0.125c-0.3125,-0.00391 -0.70312,0.04688 -1.03125,0.09375c0.11328,-0.34766 0.1875,-0.73047 0.1875,-1.125c0,-0.96094 -0.46875,-1.85547 -1.21875,-2.59375c0.20703,-0.76953 0.41016,-2.08984 -0.125,-2.625c-1.58203,0 -2.45703,1.12891 -2.5,1.1875c-0.48828,-0.11719 -0.99219,-0.1875 -1.53125,-0.1875c-0.69141,0 -1.35156,0.125 -1.96875,0.3125l0.1875,-0.15625c0,0 -0.87891,-1.21875 -2.5,-1.21875c-0.56641,0.57031 -0.30859,2.01563 -0.09375,2.75c-0.76562,0.73047 -1.25,1.59375 -1.25,2.53125c0,0.32813 0.07813,0.64063 0.15625,0.9375c-0.27734,-0.03125 -1.27734,-0.125 -1.6875,-0.125c-0.36328,0 -0.92578,0.08594 -1.375,0.1875c-0.0625,-0.39844 -0.09375,-0.80469 -0.09375,-1.21875c0,-4.41016 3.58984,-8 8,-8zM5.46875,13.28125c0.39453,0 1.59375,0.14063 1.75,0.15625c0.01953,0.05469 0.03906,0.10547 0.0625,0.15625c-0.42969,-0.03906 -1.26172,-0.09766 -1.8125,-0.03125c-0.36719,0.04297 -0.83594,0.17578 -1.25,0.28125c-0.03125,-0.125 -0.07031,-0.24609 -0.09375,-0.375c0.4375,-0.09375 1.01172,-0.1875 1.34375,-0.1875zM18.84375,13.5c0.39844,0.00391 0.76172,0.07031 1,0.125c-0.01172,0.06641 -0.04687,0.12109 -0.0625,0.1875c-0.25391,-0.05859 -0.67187,-0.14453 -1.15625,-0.15625c-0.23437,-0.00391 -0.60937,0.00781 -0.9375,0.03125c0.01563,-0.03125 0.01953,-0.0625 0.03125,-0.09375c0.33984,-0.04687 0.77344,-0.09766 1.125,-0.09375zM6.09375,13.78125c0.5625,0.00391 1.08984,0.04297 1.3125,0.0625c0.52344,0.97656 1.58203,1.69922 3.21875,2c-0.40234,0.22266 -0.76172,0.53516 -1.03125,0.90625c-0.23437,0.01953 -0.48047,0.03125 -0.71875,0.03125c-0.69531,0 -1.12891,-0.62109 -1.5,-1.15625c-0.375,-0.53516 -0.83594,-0.59375 -1.09375,-0.625c-0.26172,-0.03125 -0.35156,0.11719 -0.21875,0.21875c0.76172,0.58594 1.03516,1.28125 1.34375,1.90625c0.27734,0.5625 0.85938,0.875 1.5,0.875h0.125c-0.01953,0.10938 -0.03125,0.21094 -0.03125,0.3125v1.09375c-2.30859,-0.93359 -4.06641,-2.90625 -4.71875,-5.34375c0.41016,-0.10156 0.87109,-0.20703 1.21875,-0.25c0.16016,-0.01953 0.36328,-0.03516 0.59375,-0.03125zM18.625,13.90625c0.44922,0.01172 0.84766,0.09766 1.09375,0.15625c-0.55078,2.07031 -1.91016,3.79297 -3.71875,4.84375v-0.59375c0,-0.85156 -0.67187,-1.94531 -1.625,-2.46875c1.58203,-0.28906 2.61328,-0.98047 3.15625,-1.90625c0.37891,-0.02734 0.82422,-0.03906 1.09375,-0.03125zM12.5,18c0.27344,0 0.5,0.22656 0.5,0.5v1.4375c-0.32812,0.04297 -0.66016,0.0625 -1,0.0625v-1.5c0,-0.27344 0.22656,-0.5 0.5,-0.5zM10.5,19c0.27344,0 0.5,0.22656 0.5,0.5v0.4375c-0.33594,-0.04297 -0.67578,-0.10547 -1,-0.1875v-0.25c0,-0.27344 0.22656,-0.5 0.5,-0.5zM14.5,19c0.24219,0 0.45313,0.17578 0.5,0.40625c-0.32422,0.13281 -0.65625,0.25391 -1,0.34375v-0.25c0,-0.27344 0.22656,-0.5 0.5,-0.5z"></path></g></g>
</svg>
